0, 0, Header, 1, 4, 480
1, 0, Start_track
1, 0, Unknown_meta_event, 8, 54, 66, 97, 99, 104, 58, 32, 84, 104, 101, 32, 65, 114, 116, 32, 111, 102, 32, 116, 104, 101, 32, 70, 117, 103, 117, 101, 32, 40, 66, 87, 86, 32, 49, 48, 56, 48, 41, 10, 67, 111, 110, 116, 114, 97, 112, 117, 110, 99, 116, 117, 115, 32, 50, 0
1, 0, Unknown_meta_event, 10, 11, 74, 46, 32, 83, 46, 32, 66, 97, 99, 104, 0
1, 0, Time_signature, 4, 2, 24, 8
1, 0, Key_signature, -1, "major"
1, 0, Program_c, 0, 0
1, 2, Control_c, 0, 7, 100
1, 4, Control_c, 0, 10, 64
1, 6, Control_c, 0, 91, 30
1, 8, Control_c, 0, 93, 30
1, 23040, Note_on_c, 0, 69, 80
1, 23999, Note_on_c, 0, 69, 0
1, 24000, Note_on_c, 0, 74, 80
1, 24959, Note_on_c, 0, 74, 0
1, 24960, Note_on_c, 0, 72, 80
1, 25919, Note_on_c, 0, 72, 0
1, 25920, Note_on_c, 0, 69, 80
1, 26879, Note_on_c, 0, 69, 0
1, 26880, Note_on_c, 0, 68, 80
1, 27839, Note_on_c, 0, 68, 0
1, 27840, Note_on_c, 0, 69, 80
1, 28319, Note_on_c, 0, 69, 0
1, 28320, Note_on_c, 0, 71, 80
1, 28799, Note_on_c, 0, 71, 0
1, 28800, Note_on_c, 0, 72, 80
1, 30119, Note_on_c, 0, 72, 0
1, 30120, Note_on_c, 0, 74, 80
1, 30239, Note_on_c, 0, 74, 0
1, 30240, Note_on_c, 0, 72, 80
1, 30599, Note_on_c, 0, 72, 0
1, 30600, Note_on_c, 0, 71, 80
1, 30719, Note_on_c, 0, 71, 0
1, 30720, End_track
2, 0, Start_track
2, 0, Key_signature, -1, "major"
2, 0, Program_c, 1, 0
2, 2, Control_c, 1, 7, 100
2, 4, Control_c, 1, 10, 64
2, 6, Control_c, 1, 91, 30
2, 8, Control_c, 1, 93, 30
2, 15360, Note_on_c, 1, 62, 80
2, 16319, Note_on_c, 1, 62, 0
2, 16320, Note_on_c, 1, 69, 80
2, 17279, Note_on_c, 1, 69, 0
2, 17280, Note_on_c, 1, 65, 80
2, 18239, Note_on_c, 1, 65, 0
2, 18240, Note_on_c, 1, 62, 80
2, 19199, Note_on_c, 1, 62, 0
2, 19200, Note_on_c, 1, 61, 80
2, 20159, Note_on_c, 1, 61, 0
2, 20160, Note_on_c, 1, 62, 80
2, 20639, Note_on_c, 1, 62, 0
2, 20640, Note_on_c, 1, 64, 80
2, 21119, Note_on_c, 1, 64, 0
2, 21120, Note_on_c, 1, 65, 80
2, 22439, Note_on_c, 1, 65, 0
2, 22440, Note_on_c, 1, 67, 80
2, 22559, Note_on_c, 1, 67, 0
2, 22560, Note_on_c, 1, 65, 80
2, 22919, Note_on_c, 1, 65, 0
2, 22920, Note_on_c, 1, 64, 80
2, 23039, Note_on_c, 1, 64, 0
2, 23040, Note_on_c, 1, 62, 80
2, 23399, Note_on_c, 1, 62, 0
2, 23400, Note_on_c, 1, 64, 80
2, 23519, Note_on_c, 1, 64, 0
2, 23520, Note_on_c, 1, 65, 80
2, 23879, Note_on_c, 1, 65, 0
2, 23880, Note_on_c, 1, 67, 80
2, 23999, Note_on_c, 1, 67, 0
2, 24000, Note_on_c, 1, 69, 80
2, 25319, Note_on_c, 1, 69, 0
2, 25320, Note_on_c, 1, 67, 80
2, 25439, Note_on_c, 1, 67, 0
2, 25440, Note_on_c, 1, 65, 80
2, 25799, Note_on_c, 1, 65, 0
2, 25800, Note_on_c, 1, 64, 80
2, 26279, Note_on_c, 1, 64, 0
2, 26280, Note_on_c, 1, 65, 80
2, 26399, Note_on_c, 1, 65, 0
2, 26400, Note_on_c, 1, 64, 80
2, 26759, Note_on_c, 1, 64, 0
2, 26760, Note_on_c, 1, 62, 80
2, 27239, Note_on_c, 1, 62, 0
2, 27240, Note_on_c, 1, 62, 80
2, 27359, Note_on_c, 1, 62, 0
2, 27360, Note_on_c, 1, 64, 80
2, 27719, Note_on_c, 1, 64, 0
2, 27720, Note_on_c, 1, 65, 80
2, 27839, Note_on_c, 1, 65, 0
2, 27840, Note_on_c, 1, 64, 80
2, 28319, Note_on_c, 1, 64, 0
2, 28320, Note_on_c, 1, 62, 80
2, 28799, Note_on_c, 1, 62, 0
2, 28800, Note_on_c, 1, 60, 80
2, 29279, Note_on_c, 1, 60, 0
2, 29280, Note_on_c, 1, 64, 80
2, 29759, Note_on_c, 1, 64, 0
2, 29760, Note_on_c, 1, 65, 80
2, 30239, Note_on_c, 1, 65, 0
2, 30240, Note_on_c, 1, 64, 80
2, 30719, Note_on_c, 1, 64, 0
2, 30720, End_track
3, 0, Start_track
3, 0, Key_signature, -1, "major"
3, 0, Program_c, 2, 0
3, 2, Control_c, 2, 7, 100
3, 4, Control_c, 2, 10, 64
3, 6, Control_c, 2, 91, 30
3, 8, Control_c, 2, 93, 30
3, 7680, Note_on_c, 2, 57, 80
3, 8639, Note_on_c, 2, 57, 0
3, 8640, Note_on_c, 2, 62, 80
3, 9599, Note_on_c, 2, 62, 0
3, 9600, Note_on_c, 2, 60, 80
3, 10559, Note_on_c, 2, 60, 0
3, 10560, Note_on_c, 2, 57, 80
3, 11519, Note_on_c, 2, 57, 0
3, 11520, Note_on_c, 2, 56, 80
3, 12479, Note_on_c, 2, 56, 0
3, 12480, Note_on_c, 2, 57, 80
3, 12959, Note_on_c, 2, 57, 0
3, 12960, Note_on_c, 2, 59, 80
3, 13439, Note_on_c, 2, 59, 0
3, 13440, Note_on_c, 2, 60, 80
3, 14759, Note_on_c, 2, 60, 0
3, 14760, Note_on_c, 2, 62, 80
3, 14879, Note_on_c, 2, 62, 0
3, 14880, Note_on_c, 2, 60, 80
3, 15239, Note_on_c, 2, 60, 0
3, 15240, Note_on_c, 2, 58, 80
3, 15359, Note_on_c, 2, 58, 0
3, 15360, Note_on_c, 2, 57, 80
3, 16679, Note_on_c, 2, 57, 0
3, 16680, Note_on_c, 2, 67, 80
3, 16799, Note_on_c, 2, 67, 0
3, 16800, Note_on_c, 2, 65, 80
3, 17159, Note_on_c, 2, 65, 0
3, 17160, Note_on_c, 2, 64, 80
3, 17279, Note_on_c, 2, 64, 0
3, 17280, Note_on_c, 2, 62, 80
3, 17639, Note_on_c, 2, 62, 0
3, 17640, Note_on_c, 2, 60, 80
3, 17759, Note_on_c, 2, 60, 0
3, 17760, Note_on_c, 2, 58, 80
3, 18119, Note_on_c, 2, 58, 0
3, 18120, Note_on_c, 2, 57, 80
3, 18239, Note_on_c, 2, 57, 0
3, 18240, Note_on_c, 2, 58, 80
3, 18599, Note_on_c, 2, 58, 0
3, 18600, Note_on_c, 2, 57, 80
3, 18719, Note_on_c, 2, 57, 0
3, 18720, Note_on_c, 2, 55, 80
3, 19079, Note_on_c, 2, 55, 0
3, 19080, Note_on_c, 2, 53, 80
3, 19199, Note_on_c, 2, 53, 0
3, 19200, Note_on_c, 2, 52, 80
3, 20159, Note_on_c, 2, 52, 0
3, 20520, Note_on_c, 2, 57, 80
3, 20639, Note_on_c, 2, 57, 0
3, 20640, Note_on_c, 2, 59, 80
3, 20999, Note_on_c, 2, 59, 0
3, 21000, Note_on_c, 2, 61, 80
3, 21119, Note_on_c, 2, 61, 0
3, 21120, Note_on_c, 2, 62, 80
3, 22559, Note_on_c, 2, 62, 0
3, 22560, Note_on_c, 2, 61, 80
3, 23039, Note_on_c, 2, 61, 0
3, 23040, Note_on_c, 2, 62, 80
3, 23759, Note_on_c, 2, 62, 0
3, 23880, Note_on_c, 2, 64, 80
3, 23999, Note_on_c, 2, 64, 0
3, 24000, Note_on_c, 2, 65, 80
3, 24959, Note_on_c, 2, 65, 0
3, 24960, Note_on_c, 2, 64, 80
3, 25439, Note_on_c, 2, 64, 0
3, 25440, Note_on_c, 2, 60, 80
3, 26399, Note_on_c, 2, 60, 0
3, 26400, Note_on_c, 2, 57, 80
3, 26879, Note_on_c, 2, 57, 0
3, 26880, Note_on_c, 2, 59, 80
3, 27839, Note_on_c, 2, 59, 0
3, 28200, Note_on_c, 2, 52, 80
3, 28319, Note_on_c, 2, 52, 0
3, 28320, Note_on_c, 2, 54, 80
3, 28679, Note_on_c, 2, 54, 0
3, 28680, Note_on_c, 2, 56, 80
3, 28799, Note_on_c, 2, 56, 0
3, 28800, Note_on_c, 2, 57, 80
3, 30239, Note_on_c, 2, 57, 0
3, 30240, Note_on_c, 2, 56, 80
3, 30719, Note_on_c, 2, 56, 0
3, 30720, End_track
4, 0, Start_track
4, 0, Key_signature, -1, "major"
4, 0, Program_c, 3, 0
4, 0, Note_on_c, 3, 50, 80
4, 2, Control_c, 3, 7, 100
4, 4, Control_c, 3, 10, 64
4, 6, Control_c, 3, 91, 30
4, 8, Control_c, 3, 93, 30
4, 959, Note_on_c, 3, 50, 0
4, 960, Note_on_c, 3, 57, 80
4, 1919, Note_on_c, 3, 57, 0
4, 1920, Note_on_c, 3, 53, 80
4, 2879, Note_on_c, 3, 53, 0
4, 2880, Note_on_c, 3, 50, 80
4, 3839, Note_on_c, 3, 50, 0
4, 3840, Note_on_c, 3, 49, 80
4, 4799, Note_on_c, 3, 49, 0
4, 4800, Note_on_c, 3, 50, 80
4, 5279, Note_on_c, 3, 50, 0
4, 5280, Note_on_c, 3, 52, 80
4, 5759, Note_on_c, 3, 52, 0
4, 5760, Note_on_c, 3, 53, 80
4, 7079, Note_on_c, 3, 53, 0
4, 7080, Note_on_c, 3, 55, 80
4, 7199, Note_on_c, 3, 55, 0
4, 7200, Note_on_c, 3, 53, 80
4, 7559, Note_on_c, 3, 53, 0
4, 7560, Note_on_c, 3, 52, 80
4, 7679, Note_on_c, 3, 52, 0
4, 7680, Note_on_c, 3, 50, 80
4, 8039, Note_on_c, 3, 50, 0
4, 8040, Note_on_c, 3, 52, 80
4, 8159, Note_on_c, 3, 52, 0
4, 8160, Note_on_c, 3, 50, 80
4, 8519, Note_on_c, 3, 50, 0
4, 8520, Note_on_c, 3, 48, 80
4, 8999, Note_on_c, 3, 48, 0
4, 9000, Note_on_c, 3, 50, 80
4, 9119, Note_on_c, 3, 50, 0
4, 9120, Note_on_c, 3, 48, 80
4, 9479, Note_on_c, 3, 48, 0
4, 9480, Note_on_c, 3, 47, 80
4, 9959, Note_on_c, 3, 47, 0
4, 9960, Note_on_c, 3, 45, 80
4, 10079, Note_on_c, 3, 45, 0
4, 10080, Note_on_c, 3, 47, 80
4, 10439, Note_on_c, 3, 47, 0
4, 10440, Note_on_c, 3, 48, 80
4, 10559, Note_on_c, 3, 48, 0
4, 10560, Note_on_c, 3, 50, 80
4, 10919, Note_on_c, 3, 50, 0
4, 10920, Note_on_c, 3, 52, 80
4, 11039, Note_on_c, 3, 52, 0
4, 11040, Note_on_c, 3, 53, 80
4, 11399, Note_on_c, 3, 53, 0
4, 11400, Note_on_c, 3, 50, 80
4, 11519, Note_on_c, 3, 50, 0
4, 11520, Note_on_c, 3, 52, 80
4, 11879, Note_on_c, 3, 52, 0
4, 11880, Note_on_c, 3, 53, 80
4, 11999, Note_on_c, 3, 53, 0
4, 12000, Note_on_c, 3, 52, 80
4, 12359, Note_on_c, 3, 52, 0
4, 12360, Note_on_c, 3, 50, 80
4, 12479, Note_on_c, 3, 50, 0
4, 12480, Note_on_c, 3, 48, 80
4, 12839, Note_on_c, 3, 48, 0
4, 12840, Note_on_c, 3, 47, 80
4, 12959, Note_on_c, 3, 47, 0
4, 12960, Note_on_c, 3, 45, 80
4, 13319, Note_on_c, 3, 45, 0
4, 13320, Note_on_c, 3, 44, 80
4, 13439, Note_on_c, 3, 44, 0
4, 13440, Note_on_c, 3, 45, 80
4, 13799, Note_on_c, 3, 45, 0
4, 13800, Note_on_c, 3, 57, 80
4, 13919, Note_on_c, 3, 57, 0
4, 13920, Note_on_c, 3, 56, 80
4, 14279, Note_on_c, 3, 56, 0
4, 14280, Note_on_c, 3, 57, 80
4, 14399, Note_on_c, 3, 57, 0
4, 14400, Note_on_c, 3, 50, 80
4, 14879, Note_on_c, 3, 50, 0
4, 14880, Note_on_c, 3, 55, 80
4, 15719, Note_on_c, 3, 55, 0
4, 15720, Note_on_c, 3, 53, 80
4, 15839, Note_on_c, 3, 53, 0
4, 15840, Note_on_c, 3, 52, 80
4, 16199, Note_on_c, 3, 52, 0
4, 16200, Note_on_c, 3, 50, 80
4, 16319, Note_on_c, 3, 50, 0
4, 16320, Note_on_c, 3, 49, 80
4, 17279, Note_on_c, 3, 49, 0
4, 17280, Note_on_c, 3, 50, 80
4, 17759, Note_on_c, 3, 50, 0
4, 17760, Note_on_c, 3, 38, 80
4, 18239, Note_on_c, 3, 38, 0
4, 18240, Note_on_c, 3, 43, 80
4, 18599, Note_on_c, 3, 43, 0
4, 18600, Note_on_c, 3, 45, 80
4, 18719, Note_on_c, 3, 45, 0
4, 18720, Note_on_c, 3, 46, 80
4, 19559, Note_on_c, 3, 46, 0
4, 19560, Note_on_c, 3, 46, 80
4, 19679, Note_on_c, 3, 46, 0
4, 19680, Note_on_c, 3, 45, 80
4, 20039, Note_on_c, 3, 45, 0
4, 20040, Note_on_c, 3, 43, 80
4, 20159, Note_on_c, 3, 43, 0
4, 20160, Note_on_c, 3, 41, 80
4, 20639, Note_on_c, 3, 41, 0
4, 20640, Note_on_c, 3, 40, 80
4, 21119, Note_on_c, 3, 40, 0
4, 21120, Note_on_c, 3, 38, 80
4, 21479, Note_on_c, 3, 38, 0
4, 21480, Note_on_c, 3, 50, 80
4, 21599, Note_on_c, 3, 50, 0
4, 21600, Note_on_c, 3, 52, 80
4, 21959, Note_on_c, 3, 52, 0
4, 21960, Note_on_c, 3, 53, 80
4, 22079, Note_on_c, 3, 53, 0
4, 22080, Note_on_c, 3, 55, 80
4, 22439, Note_on_c, 3, 55, 0
4, 22440, Note_on_c, 3, 58, 80
4, 22559, Note_on_c, 3, 58, 0
4, 22560, Note_on_c, 3, 57, 80
4, 22919, Note_on_c, 3, 57, 0
4, 22920, Note_on_c, 3, 55, 80
4, 23039, Note_on_c, 3, 55, 0
4, 23040, Note_on_c, 3, 53, 80
4, 23399, Note_on_c, 3, 53, 0
4, 23400, Note_on_c, 3, 55, 80
4, 23519, Note_on_c, 3, 55, 0
4, 23520, Note_on_c, 3, 53, 80
4, 23879, Note_on_c, 3, 53, 0
4, 23880, Note_on_c, 3, 52, 80
4, 23999, Note_on_c, 3, 52, 0
4, 24000, Note_on_c, 3, 50, 80
4, 24359, Note_on_c, 3, 50, 0
4, 24360, Note_on_c, 3, 52, 80
4, 24479, Note_on_c, 3, 52, 0
4, 24480, Note_on_c, 3, 53, 80
4, 24839, Note_on_c, 3, 53, 0
4, 24840, Note_on_c, 3, 55, 80
4, 24959, Note_on_c, 3, 55, 0
4, 24960, Note_on_c, 3, 57, 80
4, 25919, Note_on_c, 3, 57, 0
4, 25920, Note_on_c, 3, 53, 80
4, 27239, Note_on_c, 3, 53, 0
4, 27240, Note_on_c, 3, 53, 80
4, 27359, Note_on_c, 3, 53, 0
4, 27360, Note_on_c, 3, 52, 80
4, 27719, Note_on_c, 3, 52, 0
4, 27720, Note_on_c, 3, 50, 80
4, 27839, Note_on_c, 3, 50, 0
4, 27840, Note_on_c, 3, 48, 80
4, 28319, Note_on_c, 3, 48, 0
4, 28320, Note_on_c, 3, 47, 80
4, 28799, Note_on_c, 3, 47, 0
4, 29160, Note_on_c, 3, 45, 80
4, 29279, Note_on_c, 3, 45, 0
4, 29280, Note_on_c, 3, 47, 80
4, 29639, Note_on_c, 3, 47, 0
4, 29640, Note_on_c, 3, 48, 80
4, 29759, Note_on_c, 3, 48, 0
4, 29760, Note_on_c, 3, 50, 80
4, 30239, Note_on_c, 3, 50, 0
4, 30240, Note_on_c, 3, 52, 80
4, 30719, Note_on_c, 3, 52, 0
4, 30720, End_track
0, 0, End_of_file
